<?xml version="1.0" encoding="utf-8"?>
<!-- Generator: Adobe Illustrator 21.0.2, SVG Export Plug-In . SVG Version: 6.00 Build 0)  -->
<svg version="1.1" id="Layer_1" xmlns="http://www.w3.org/2000/svg" xmlns:xlink="http://www.w3.org/1999/xlink" x="0px" y="0px"
	 viewBox="0 0 32 32" style="enable-background:new 0 0 32 32;" xml:space="preserve">
<path d="M23.1,20.1c2.2-3.1,1.7-8.1-1.6-11.1C18.1,6,13,6.2,9.7,9.4c-3.2,3.1-3.4,8.3-0.5,11.8c1.5,1.7,3.3,2.7,5.6,3
	c1.3,0.2,3.1,0,4.4-0.9c-1.1-1.1-2.2-2.2-3.3-3.3c1.4-1.3,2.3-2.2,3.7-3.5C20.7,17.7,21.9,18.9,23.1,20.1 M26.6,30.6
	c-1.1-1.1-2.3-2.3-3.5-3.4c-3.8,2.5-8.2,2.8-12.2,1.4c-3.1-1.1-5.5-3.2-7.1-6.1C0.4,16.7,1.7,9.2,6.9,5C12.2,0.6,19.6,0.6,24.8,5
	c5.3,4.5,6.7,12.7,2.1,18.9c1.1,1.1,2.1,2.1,3.2,3.2C28.7,28.5,27.9,29.3,26.6,30.6"/>
</svg>
